<svg xmlns="http://www.w3.org/2000/svg" viewBox="0 0 32 32">
  <defs>
    <linearGradient id="bg" x1="0%" y1="0%" x2="100%" y2="100%">
      <stop offset="0%" stop-color="#1b5e20"/>
      <stop offset="100%" stop-color="#00695c"/>
    </linearGradient>
  </defs>
  <rect width="32" height="32" rx="8" fill="url(#bg)"/>
  <path d="M16 6C10 8 7 14 8 20c0 0 3-2 6-2s4 1 6 0c2-1 3-4 3-7 0 0-2 3-5 3s-4-2-4-2c0-3 2-5 2-6z" fill="#fff" opacity="0.92"/>
  <path d="M15.5 10c0 0-1 4-1 8" stroke="#1b5e20" stroke-width="1" fill="none" opacity="0.4"/>
  <path d="M14.5 13.5c1.5-0.5 3 0 3 0" stroke="#1b5e20" stroke-width="0.7" fill="none" opacity="0.35"/>
  <path d="M14.8 16.5c1.2-0.3 2.5 0.2 2.5 0.2" stroke="#1b5e20" stroke-width="0.7" fill="none" opacity="0.35"/>
  <text x="16" y="28" text-anchor="middle" font-family="system-ui" font-size="5" font-weight="700" fill="rgba(255,255,255,0.85)">KT</text>
</svg>
